<svg width="201" height="107" viewBox="0 0 201 107" fill="none" xmlns="http://www.w3.org/2000/svg">
<path d="M47.1917 28.0737H52.6523L58.9116 28.0739C60.735 28.0739 62.4138 29.0666 63.2926 30.6643L75.1654 52.2513C76.0887 53.9301 75.9715 55.9888 74.8638 57.552L68.8504 66.0373C67.913 67.3601 66.3923 68.1463 64.771 68.1463H41.3129C39.719 68.1463 38.2205 67.3863 37.2788 66.1003L31.0484 57.5922C29.8905 56.0109 29.7632 53.8989 30.7228 52.19L42.832 30.6256C43.7171 29.0494 45.384 28.0737 47.1917 28.0737Z" fill="#FDB71A"/>
<path d="M137.481 28.0737H142.941L149.201 28.0739C151.024 28.0739 152.703 29.0666 153.582 30.6643L165.454 52.2513C166.378 53.9301 166.261 55.9888 165.153 57.552L159.139 66.0373C158.202 67.3601 156.681 68.1463 155.06 68.1463H131.602C130.008 68.1463 128.51 67.3863 127.568 66.1003L121.338 57.5922C120.18 56.0109 120.052 53.8989 121.012 52.19L133.121 30.6256C134.006 29.0494 135.673 28.0737 137.481 28.0737Z" fill="#FDB71A"/>
<path d="M103.775 68.1462L98.3145 68.1462L92.0552 68.1461C90.2318 68.146 88.553 67.1534 87.6742 65.5557L75.8014 43.9686C74.8781 42.2899 74.9953 40.2312 76.103 38.668L82.1164 30.1827C83.0538 28.8599 84.5745 28.0737 86.1958 28.0737L109.654 28.0737C111.248 28.0737 112.746 28.8336 113.688 30.1196L119.918 38.6278C121.076 40.2091 121.204 42.321 120.244 44.03L108.135 65.5944C107.25 67.1705 105.583 68.1462 103.775 68.1462Z" fill="#FDB71A"/>
<path d="M44.7442 59.2732V38.1823H53.1888C54.7404 38.1823 56.0346 38.4123 57.0713 38.8723C58.108 39.3323 58.8872 39.9708 59.409 40.7878C59.9308 41.5979 60.1917 42.5316 60.1917 43.5889C60.1917 44.4128 60.0269 45.1371 59.6974 45.7618C59.3678 46.3797 58.9147 46.8878 58.338 47.286C57.7681 47.6773 57.1159 47.9554 56.3813 48.1201V48.3261C57.1846 48.3604 57.9363 48.587 58.6366 49.0058C59.3438 49.4246 59.9171 50.0116 60.3564 50.7668C60.7958 51.5151 61.0155 52.4077 61.0155 53.4444C61.0155 54.5634 60.7375 55.5624 60.1814 56.4412C59.6321 57.3131 58.8186 58.0031 57.7407 58.5111C56.6628 59.0192 55.3343 59.2732 53.7552 59.2732H44.7442ZM49.2034 55.6276H52.8387C54.0814 55.6276 54.9876 55.3907 55.5574 54.917C56.1273 54.4364 56.4122 53.7979 56.4122 53.0015C56.4122 52.418 56.2715 51.903 55.99 51.4568C55.7085 51.0105 55.3068 50.6604 54.7851 50.4064C54.2702 50.1523 53.6557 50.0253 52.9417 50.0253H49.2034V55.6276ZM49.2034 47.0079H52.5091C53.1202 47.0079 53.6626 46.9015 54.1363 46.6887C54.6169 46.469 54.9945 46.16 55.2691 45.7618C55.5506 45.3636 55.6913 44.8865 55.6913 44.3304C55.6913 43.5683 55.4201 42.9538 54.8778 42.487C54.3422 42.0201 53.5802 41.7867 52.5915 41.7867H49.2034V47.0079Z" fill="white"/>
<path d="M135.901 59.2732V38.1823H144.346C145.898 38.1823 147.192 38.4123 148.229 38.8723C149.265 39.3323 150.044 39.9708 150.566 40.7878C151.088 41.5979 151.349 42.5316 151.349 43.5889C151.349 44.4128 151.184 45.1371 150.855 45.7618C150.525 46.3797 150.072 46.8878 149.495 47.286C148.925 47.6773 148.273 47.9554 147.539 48.1201V48.3261C148.342 48.3604 149.094 48.587 149.794 49.0058C150.501 49.4246 151.074 50.0116 151.514 50.7668C151.953 51.5151 152.173 52.4077 152.173 53.4444C152.173 54.5634 151.895 55.5624 151.339 56.4412C150.789 57.3131 149.976 58.0031 148.898 58.5111C147.82 59.0192 146.492 59.2732 144.912 59.2732H135.901ZM140.361 55.6276H143.996C145.239 55.6276 146.145 55.3907 146.715 54.917C147.285 54.4364 147.569 53.7979 147.569 53.0015C147.569 52.418 147.429 51.903 147.147 51.4568C146.866 51.0105 146.464 50.6604 145.942 50.4064C145.427 50.1523 144.813 50.0253 144.099 50.0253H140.361V55.6276ZM140.361 47.0079H143.666C144.277 47.0079 144.82 46.9015 145.294 46.6887C145.774 46.469 146.152 46.16 146.426 45.7618C146.708 45.3636 146.849 44.8865 146.849 44.3304C146.849 43.5683 146.577 42.9538 146.035 42.487C145.499 42.0201 144.737 41.7867 143.749 41.7867H140.361V47.0079Z" fill="white"/>
<path d="M89.0855 41.8588V38.1823H106.407V41.8588H99.9502V59.2732H95.5425V41.8588H89.0855Z" fill="white"/>
<path d="M56.336 88.2334V75.8698H63.7977V77.1979H57.8332V81.3754H63.4113V82.7036H57.8332V86.9053H63.8943V88.2334H56.336ZM67.6862 88.2334V75.8698H69.1833V86.9053H74.9305V88.2334H67.6862ZM78.4387 88.2334V75.8698H85.9003V77.1979H79.9358V81.3754H85.514V82.7036H79.9358V86.9053H85.9969V88.2334H78.4387ZM99.7377 79.7334H98.2405C98.152 79.3028 97.9971 78.9244 97.7757 78.5985C97.5584 78.2725 97.2927 77.9988 96.9788 77.7774C96.6689 77.5521 96.3248 77.383 95.9465 77.2703C95.5682 77.1576 95.1738 77.1013 94.7633 77.1013C94.0147 77.1013 93.3365 77.2905 92.7288 77.6688C92.1251 78.0471 91.6442 78.6045 91.286 79.341C90.9318 80.0775 90.7547 80.981 90.7547 82.0516C90.7547 83.1221 90.9318 84.0257 91.286 84.7622C91.6442 85.4987 92.1251 86.0561 92.7288 86.4344C93.3365 86.8127 94.0147 87.0019 94.7633 87.0019C95.1738 87.0019 95.5682 86.9455 95.9465 86.8328C96.3248 86.7201 96.6689 86.5531 96.9788 86.3318C97.2927 86.1064 97.5584 85.8307 97.7757 85.5047C97.9971 85.1747 98.152 84.7964 98.2405 84.3698H99.7377C99.625 85.0016 99.4198 85.5671 99.1219 86.0661C98.8241 86.5652 98.4538 86.9898 98.0111 87.3399C97.5684 87.686 97.0714 87.9497 96.52 88.1308C95.9727 88.3119 95.3871 88.4024 94.7633 88.4024C93.7088 88.4024 92.7711 88.1449 91.9501 87.6297C91.129 87.1146 90.4831 86.3821 90.0122 85.4323C89.5413 84.4825 89.3059 83.3556 89.3059 82.0516C89.3059 80.7476 89.5413 79.6207 90.0122 78.6709C90.4831 77.7211 91.129 76.9886 91.9501 76.4735C92.7711 75.9583 93.7088 75.7007 94.7633 75.7007C95.3871 75.7007 95.9727 75.7913 96.52 75.9724C97.0714 76.1535 97.5684 76.4191 98.0111 76.7693C98.4538 77.1154 98.8241 77.538 99.1219 78.037C99.4198 78.532 99.625 79.0975 99.7377 79.7334ZM102.671 77.1979V75.8698H111.944V77.1979H108.056V88.2334H106.559V77.1979H102.671ZM115.444 88.2334V75.8698H119.622C120.588 75.8698 121.381 76.0348 122 76.3648C122.62 76.6908 123.079 77.1395 123.377 77.711C123.675 78.2825 123.823 78.9325 123.823 79.661C123.823 80.3894 123.675 81.0354 123.377 81.5988C123.079 82.1623 122.622 82.605 122.006 82.9269C121.391 83.2449 120.604 83.4039 119.646 83.4039H116.265V82.0516H119.598C120.258 82.0516 120.789 81.955 121.191 81.7618C121.598 81.5686 121.892 81.295 122.073 80.9408C122.258 80.5826 122.35 80.156 122.35 79.661C122.35 79.1659 122.258 78.7333 122.073 78.363C121.888 77.9927 121.592 77.707 121.185 77.5058C120.779 77.3005 120.242 77.1979 119.573 77.1979H116.941V88.2334H115.444ZM121.264 82.6794L124.306 88.2334H122.568L119.573 82.6794H121.264ZM129.005 75.8698V88.2334H127.508V75.8698H129.005ZM143.146 79.7334H141.649C141.56 79.3028 141.405 78.9244 141.184 78.5985C140.967 78.2725 140.701 77.9988 140.387 77.7774C140.077 77.5521 139.733 77.383 139.355 77.2703C138.977 77.1576 138.582 77.1013 138.172 77.1013C137.423 77.1013 136.745 77.2905 136.137 77.6688C135.534 78.0471 135.053 78.6045 134.694 79.341C134.34 80.0775 134.163 80.981 134.163 82.0516C134.163 83.1221 134.34 84.0257 134.694 84.7622C135.053 85.4987 135.534 86.0561 136.137 86.4344C136.745 86.8127 137.423 87.0019 138.172 87.0019C138.582 87.0019 138.977 86.9455 139.355 86.8328C139.733 86.7201 140.077 86.5531 140.387 86.3318C140.701 86.1064 140.967 85.8307 141.184 85.5047C141.405 85.1747 141.56 84.7964 141.649 84.3698H143.146C143.033 85.0016 142.828 85.5671 142.53 86.0661C142.233 86.5652 141.862 86.9898 141.42 87.3399C140.977 87.686 140.48 87.9497 139.928 88.1308C139.381 88.3119 138.796 88.4024 138.172 88.4024C137.117 88.4024 136.18 88.1449 135.358 87.6297C134.537 87.1146 133.892 86.3821 133.421 85.4323C132.95 84.4825 132.714 83.3556 132.714 82.0516C132.714 80.7476 132.95 79.6207 133.421 78.6709C133.892 77.7211 134.537 76.9886 135.358 76.4735C136.18 75.9583 137.117 75.7007 138.172 75.7007C138.796 75.7007 139.381 75.7913 139.928 75.9724C140.48 76.1535 140.977 76.4191 141.42 76.7693C141.862 77.1154 142.233 77.538 142.53 78.037C142.828 78.532 143.033 79.0975 143.146 79.7334Z" fill="black"/>
</svg>
