<svg width="264" height="72" viewBox="0 0 264 72" fill="none" xmlns="http://www.w3.org/2000/svg">
<path fill-rule="evenodd" clip-rule="evenodd" d="M74 36C74 30.48 78.48 26 84 26C89.52 26 94 30.48 94 36C94 41.52 89.52 46 84 46C78.48 46 74 41.52 74 36ZM76 36C76 40.41 79.59 44 84 44C88.41 44 92 40.41 92 36C92 31.59 88.41 28 84 28C79.59 28 76 31.59 76 36ZM89.6501 33.1647L83.982 38.8329L83.9844 38.8353L82.5938 40.2259L78.3499 35.982L79.7405 34.5914L82.5914 37.4423L88.2595 31.7741L89.6501 33.1647Z" fill="black"/>
<path fill-rule="evenodd" clip-rule="evenodd" d="M26 36C26 30.48 30.48 26 36 26C41.52 26 46 30.48 46 36C46 41.52 41.52 46 36 46C30.48 46 26 41.52 26 36ZM28 36C28 40.41 31.59 44 36 44C40.41 44 44 40.41 44 36C44 31.59 40.41 28 36 28C31.59 28 28 31.59 28 36ZM41.6501 33.1647L35.982 38.8329L35.9844 38.8353L34.5938 40.2259L30.3499 35.982L31.7405 34.5914L34.5914 37.4423L40.2595 31.7741L41.6501 33.1647Z" fill="black"/>
<path fill-rule="evenodd" clip-rule="evenodd" d="M122 36C122 30.48 126.48 26 132 26C137.52 26 142 30.48 142 36C142 41.52 137.52 46 132 46C126.48 46 122 41.52 122 36ZM124 36C124 40.41 127.59 44 132 44C136.41 44 140 40.41 140 36C140 31.59 136.41 28 132 28C127.59 28 124 31.59 124 36ZM136.955 33.86L131.982 38.8329L131.984 38.8353L131.301 39.5188C130.91 39.9093 130.277 39.9093 129.887 39.5188L127.045 36.6773C126.661 36.2933 126.661 35.6707 127.045 35.2867C127.429 34.9027 128.052 34.9027 128.436 35.2867L130.591 37.4423L135.564 32.4694C135.948 32.0854 136.571 32.0854 136.955 32.4694C137.339 32.8534 137.339 33.476 136.955 33.86Z" fill="black"/>
<path fill-rule="evenodd" clip-rule="evenodd" d="M170 36C170 30.48 174.48 26 180 26C185.52 26 190 30.48 190 36C190 41.52 185.52 46 180 46C174.48 46 170 41.52 170 36ZM172 36C172 40.41 175.59 44 180 44C184.41 44 188 40.41 188 36C188 31.59 184.41 28 180 28C175.59 28 172 31.59 172 36ZM185.65 33.1647L179.982 38.8329L179.984 38.8353L178.594 40.2259L174.35 35.982L175.74 34.5914L178.591 37.4423L184.26 31.7741L185.65 33.1647Z" fill="black"/>
<path fill-rule="evenodd" clip-rule="evenodd" d="M218 36C218 30.48 222.48 26 228 26C233.52 26 238 30.48 238 36C238 41.52 233.52 46 228 46C222.48 46 218 41.52 218 36ZM220 36C220 40.41 223.59 44 228 44C232.41 44 236 40.41 236 36C236 31.59 232.41 28 228 28C223.59 28 220 31.59 220 36ZM233.65 33.1647L227.982 38.8329L227.984 38.8353L226.594 40.2259L222.35 35.982L223.74 34.5914L226.591 37.4423L232.26 31.7741L233.65 33.1647Z" fill="black"/>
</svg>
